<svg xmlns="http://www.w3.org/2000/svg" xmlns:xlink="http://www.w3.org/1999/xlink" zoomAndPan="magnify" preserveAspectRatio="xMidYMid meet" version="1.0" viewBox="51.48 151.3 277.37 72.33"><defs><g/><clipPath id="1bb13909dc"><path d="M 176.660156 154.984375 L 240.085938 154.984375 L 240.085938 215.796875 L 176.660156 215.796875 Z M 176.660156 154.984375 " clip-rule="nonzero"/></clipPath><clipPath id="57c9656b01"><path d="M 218.945312 213.964844 C 215.707031 215.070312 212.003906 215.796875 208.375 215.796875 C 204.75 215.796875 201.261719 215.175781 198.046875 214.070312 C 197.976562 214.035156 197.910156 214.035156 197.839844 214 C 185.765625 209.582031 176.871094 197.910156 176.699219 184.648438 L 176.699219 154.984375 L 240.085938 154.984375 L 240.085938 184.628906 C 239.914062 197.976562 231.15625 209.648438 218.945312 213.964844 Z M 218.945312 213.964844 " clip-rule="nonzero"/></clipPath><clipPath id="001e931329"><path d="M 189.078125 151.3125 L 227.710938 151.3125 L 227.710938 203.226562 L 189.078125 203.226562 Z M 189.078125 151.3125 " clip-rule="nonzero"/></clipPath><clipPath id="82c07ea885"><path d="M 214.828125 202.113281 C 212.851562 202.785156 210.59375 203.226562 208.382812 203.226562 C 206.175781 203.226562 204.046875 202.847656 202.085938 202.175781 C 202.046875 202.15625 202.003906 202.15625 201.960938 202.132812 C 194.601562 199.441406 189.183594 192.324219 189.078125 183.914062 L 189.078125 151.382812 L 227.710938 151.382812 L 227.710938 183.890625 C 227.605469 192.367188 222.269531 199.480469 214.828125 202.113281 Z M 214.828125 202.113281 " clip-rule="nonzero"/></clipPath><clipPath id="06079d4317"><path d="M 208.402344 189.105469 L 242.902344 189.105469 L 242.902344 223.300781 L 208.402344 223.300781 Z M 208.402344 189.105469 " clip-rule="nonzero"/></clipPath></defs><g clip-path="url(#1bb13909dc)"><g clip-path="url(#57c9656b01)"><path fill="#222222" d="M 240.085938 215.796875 L 176.660156 215.796875 L 176.660156 154.984375 L 240.085938 154.984375 Z M 240.085938 215.796875 " fill-opacity="1" fill-rule="nonzero"/></g></g><g clip-path="url(#001e931329)"><g clip-path="url(#82c07ea885)"><path fill="#ffffff" d="M 227.710938 203.226562 L 189.078125 203.226562 L 189.078125 151.3125 L 227.710938 151.3125 Z M 227.710938 203.226562 " fill-opacity="1" fill-rule="nonzero"/></g></g><g clip-path="url(#06079d4317)"><path fill="#222222" d="M 243.207031 208.105469 L 243.207031 223.605469 C 223.984375 223.605469 208.402344 208.019531 208.402344 188.800781 L 223.902344 188.800781 C 223.902344 199.460938 232.546875 208.105469 243.207031 208.105469 Z M 243.207031 208.105469 " fill-opacity="1" fill-rule="nonzero"/></g><g fill="#222222" fill-opacity="1"><g transform="translate(243.219627, 213.913445)"><g><path d="M 36.96875 -16.59375 L 12.921875 -16.59375 C 13.191406 -13.332031 14.117188 -10.960938 15.703125 -9.484375 C 17.285156 -8.003906 19.445312 -7.265625 22.1875 -7.265625 C 24.332031 -7.265625 26.070312 -7.664062 27.40625 -8.46875 C 28.738281 -9.269531 29.8125 -10.484375 30.625 -12.109375 L 31.34375 -12.109375 L 37.578125 -8.109375 C 36.359375 -5.484375 34.515625 -3.351562 32.046875 -1.71875 C 29.585938 -0.09375 26.300781 0.71875 22.1875 0.71875 C 18.320312 0.71875 14.976562 -0.015625 12.15625 -1.484375 C 9.34375 -2.960938 7.171875 -5.15625 5.640625 -8.0625 C 4.117188 -10.96875 3.359375 -14.507812 3.359375 -18.6875 C 3.359375 -22.9375 4.160156 -26.519531 5.765625 -29.4375 C 7.367188 -32.351562 9.539062 -34.53125 12.28125 -35.96875 C 15.019531 -37.40625 18.09375 -38.125 21.5 -38.125 C 26.789062 -38.125 30.84375 -36.722656 33.65625 -33.921875 C 36.476562 -31.117188 37.890625 -27.003906 37.890625 -21.578125 C 37.890625 -19.609375 37.820312 -18.082031 37.6875 -17 Z M 28.90625 -22.65625 C 28.8125 -25.507812 28.144531 -27.582031 26.90625 -28.875 C 25.675781 -30.175781 23.875 -30.828125 21.5 -30.828125 C 16.75 -30.828125 13.957031 -28.101562 13.125 -22.65625 Z M 28.90625 -22.65625 "/></g></g><g transform="translate(283.891384, 213.913445)"><g><path d="M 25.8125 -8.921875 L 28.25 -1.96875 C 27.238281 -1.132812 25.960938 -0.476562 24.421875 0 C 22.878906 0.476562 21.140625 0.71875 19.203125 0.71875 C 15.148438 0.71875 12.070312 -0.382812 9.96875 -2.59375 C 7.863281 -4.800781 6.8125 -8.007812 6.8125 -12.21875 L 6.8125 -29.984375 L 1.125 -29.984375 L 1.125 -37.453125 L 6.8125 -37.453125 L 6.8125 -44.734375 L 16.21875 -46.265625 L 16.21875 -37.453125 L 26.828125 -37.453125 L 26.828125 -29.984375 L 16.21875 -29.984375 L 16.21875 -12.890625 C 16.21875 -11.035156 16.597656 -9.679688 17.359375 -8.828125 C 18.128906 -7.984375 19.25 -7.5625 20.71875 -7.5625 C 22.394531 -7.5625 23.851562 -8.015625 25.09375 -8.921875 Z M 25.8125 -8.921875 "/></g></g><g transform="translate(312.962023, 213.913445)"><g><path d="M 10.078125 -41.890625 C 8.378906 -41.890625 7 -42.40625 5.9375 -43.4375 C 4.875 -44.46875 4.34375 -45.796875 4.34375 -47.421875 C 4.34375 -49.023438 4.875 -50.34375 5.9375 -51.375 C 7 -52.40625 8.378906 -52.921875 10.078125 -52.921875 C 11.203125 -52.921875 12.207031 -52.679688 13.09375 -52.203125 C 13.976562 -51.722656 14.660156 -51.070312 15.140625 -50.25 C 15.628906 -49.425781 15.875 -48.484375 15.875 -47.421875 C 15.875 -46.359375 15.628906 -45.40625 15.140625 -44.5625 C 14.660156 -43.726562 13.976562 -43.070312 13.09375 -42.59375 C 12.207031 -42.125 11.203125 -41.890625 10.078125 -41.890625 Z M 5.390625 0 L 5.390625 -37.421875 L 14.796875 -37.421875 L 14.796875 0 Z M 5.390625 0 "/></g></g></g><g fill="#222222" fill-opacity="1"><g transform="translate(48.651826, 213.913445)"><g><path d="M 14.578125 0.71875 C 12.179688 0.71875 10.101562 0.273438 8.34375 -0.609375 C 6.582031 -1.492188 5.222656 -2.789062 4.265625 -4.5 C 3.316406 -6.207031 2.84375 -8.257812 2.84375 -10.65625 C 2.84375 -12.863281 3.316406 -14.71875 4.265625 -16.21875 C 5.222656 -17.726562 6.695312 -18.960938 8.6875 -19.921875 C 10.675781 -20.890625 13.273438 -21.632812 16.484375 -22.15625 C 18.722656 -22.507812 20.425781 -22.898438 21.59375 -23.328125 C 22.757812 -23.765625 23.546875 -24.253906 23.953125 -24.796875 C 24.359375 -25.335938 24.5625 -26.023438 24.5625 -26.859375 C 24.5625 -28.054688 24.140625 -28.972656 23.296875 -29.609375 C 22.460938 -30.242188 21.070312 -30.5625 19.125 -30.5625 C 17.050781 -30.5625 15.070312 -30.097656 13.1875 -29.171875 C 11.3125 -28.242188 9.6875 -27.023438 8.3125 -25.515625 L 7.625 -25.515625 L 3.703125 -31.4375 C 5.597656 -33.539062 7.910156 -35.179688 10.640625 -36.359375 C 13.378906 -37.535156 16.367188 -38.125 19.609375 -38.125 C 24.554688 -38.125 28.140625 -37.070312 30.359375 -34.96875 C 32.578125 -32.863281 33.6875 -29.878906 33.6875 -26.015625 L 33.6875 -9.765625 C 33.6875 -8.097656 34.421875 -7.265625 35.890625 -7.265625 C 36.453125 -7.265625 37.003906 -7.363281 37.546875 -7.5625 L 38.03125 -7.421875 L 38.703125 -0.875 C 38.179688 -0.539062 37.457031 -0.265625 36.53125 -0.046875 C 35.601562 0.160156 34.585938 0.265625 33.484375 0.265625 C 31.242188 0.265625 29.492188 -0.160156 28.234375 -1.015625 C 26.984375 -1.878906 26.085938 -3.222656 25.546875 -5.046875 L 24.828125 -5.125 C 22.992188 -1.226562 19.578125 0.71875 14.578125 0.71875 Z M 17.578125 -6.3125 C 19.742188 -6.3125 21.476562 -7.039062 22.78125 -8.5 C 24.082031 -9.957031 24.734375 -11.984375 24.734375 -14.578125 L 24.734375 -18.390625 L 24.078125 -18.515625 C 23.515625 -18.066406 22.773438 -17.6875 21.859375 -17.375 C 20.941406 -17.070312 19.625 -16.773438 17.90625 -16.484375 C 15.875 -16.140625 14.410156 -15.554688 13.515625 -14.734375 C 12.617188 -13.910156 12.171875 -12.742188 12.171875 -11.234375 C 12.171875 -9.617188 12.644531 -8.394531 13.59375 -7.5625 C 14.550781 -6.726562 15.878906 -6.3125 17.578125 -6.3125 Z M 17.578125 -6.3125 "/></g></g><g transform="translate(88.102413, 213.913445)"><g><path d="M 17.5 0.71875 C 14.945312 0.71875 12.609375 0.421875 10.484375 -0.171875 C 8.359375 -0.773438 6.539062 -1.601562 5.03125 -2.65625 C 3.53125 -3.707031 2.421875 -4.914062 1.703125 -6.28125 L 6.921875 -11.90625 L 7.625 -11.90625 C 8.875 -10.226562 10.34375 -8.972656 12.03125 -8.140625 C 13.726562 -7.304688 15.578125 -6.890625 17.578125 -6.890625 C 19.398438 -6.890625 20.773438 -7.21875 21.703125 -7.875 C 22.628906 -8.53125 23.09375 -9.46875 23.09375 -10.6875 C 23.09375 -11.632812 22.757812 -12.429688 22.09375 -13.078125 C 21.425781 -13.722656 20.347656 -14.222656 18.859375 -14.578125 L 13.90625 -15.765625 C 10.195312 -16.648438 7.488281 -18.003906 5.78125 -19.828125 C 4.070312 -21.648438 3.21875 -23.960938 3.21875 -26.765625 C 3.21875 -29.085938 3.8125 -31.109375 5 -32.828125 C 6.1875 -34.546875 7.859375 -35.859375 10.015625 -36.765625 C 12.179688 -37.671875 14.703125 -38.125 17.578125 -38.125 C 20.941406 -38.125 23.726562 -37.632812 25.9375 -36.65625 C 28.15625 -35.6875 29.890625 -34.390625 31.140625 -32.765625 L 26.125 -27.34375 L 25.4375 -27.34375 C 24.394531 -28.519531 23.222656 -29.378906 21.921875 -29.921875 C 20.628906 -30.460938 19.179688 -30.734375 17.578125 -30.734375 C 13.859375 -30.734375 12 -29.578125 12 -27.265625 C 12 -26.296875 12.34375 -25.503906 13.03125 -24.890625 C 13.726562 -24.285156 14.945312 -23.789062 16.6875 -23.40625 L 21.296875 -22.390625 C 25.097656 -21.578125 27.875 -20.269531 29.625 -18.46875 C 31.382812 -16.664062 32.265625 -14.253906 32.265625 -11.234375 C 32.265625 -8.859375 31.675781 -6.765625 30.5 -4.953125 C 29.320312 -3.140625 27.625 -1.738281 25.40625 -0.75 C 23.1875 0.226562 20.550781 0.71875 17.5 0.71875 Z M 17.5 0.71875 "/></g></g><g transform="translate(122.600476, 213.913445)"><g><path d="M 5.390625 0 L 5.390625 -52.4375 L 14.796875 -52.4375 L 14.796875 -23.34375 L 15.703125 -23.34375 L 26.53125 -37.421875 L 36.0625 -37.421875 L 36.0625 -36.640625 L 23.34375 -20.21875 L 37.484375 -0.84375 L 37.484375 0 L 27.578125 0 L 15.703125 -15.765625 L 14.796875 -15.765625 L 14.796875 0 Z M 5.390625 0 "/></g></g></g></svg>